<svg width="280" height="212" viewBox="0 0 280 212" fill="none" xmlns="http://www.w3.org/2000/svg">
<path d="M22.6275 192.341C22.6275 192.341 -3.27773 175.34 0.347937 137.576C4.36207 95.7586 20.8375 91.1884 33.3065 85.0491C47.4587 78.0796 59.5697 76.8761 75.8014 42.4323C97.2279 -3.04083 135.785 0.0440298 150.379 0.0440298C199.935 0.0440298 199.341 49.1809 223.265 73.6389C245.789 96.6573 295.009 146.556 239.261 190.757C210.233 213.768 69.0452 221.088 22.6275 192.341Z" fill="#B3FFD1"/>
<path d="M229.854 101.197C252.76 101.197 271.328 82.6287 271.328 59.7231C271.328 36.8175 252.76 18.2489 229.854 18.2489C206.948 18.2489 188.38 36.8175 188.38 59.7231C188.38 82.6287 206.948 101.197 229.854 101.197Z" fill="#32B768"/>
<path d="M223.86 76.5708L208.192 64.0257C206.554 62.7079 206.036 60.3619 207.133 58.5719C208.458 56.4011 211.33 55.9517 213.249 57.4903L227.493 68.8929L245.827 46.3848C247.267 44.6177 249.872 44.3511 251.639 45.7907C253.406 47.2303 253.672 49.8353 252.233 51.6024L232.65 75.6339C230.471 78.3074 226.548 78.7264 223.86 76.5708Z" fill="white"/>
<path d="M30.3891 41.7689C29.993 40.2075 27.0072 39.5296 23.0007 39.8571C22.2161 39.918 21.4849 39.4839 21.1726 38.7679C19.5731 35.0813 17.5546 32.7733 15.9931 33.1618C14.4316 33.5579 13.7537 36.5437 14.0812 40.5502C14.1422 41.3348 13.708 42.066 12.992 42.3783C9.30543 43.9779 6.99749 45.9964 7.38596 47.5578C7.78204 49.1193 10.7679 49.7972 14.7744 49.4697C15.5589 49.4087 16.2902 49.8429 16.6025 50.5589C18.202 54.2455 20.2205 56.5534 21.782 56.165C23.3434 55.7689 24.0214 52.7831 23.6938 48.7765C23.6329 47.992 24.0671 47.2608 24.7831 46.9485C28.4697 45.3413 30.7852 43.3304 30.3891 41.7689Z" fill="#32B768"/>
<path d="M279.981 140.835C280.24 139.251 277.765 137.431 273.964 136.143C273.225 135.892 272.723 135.199 272.723 134.414C272.715 130.4 271.793 127.475 270.201 127.209C268.617 126.95 266.797 129.425 265.509 133.226C265.258 133.965 264.565 134.468 263.78 134.468C259.766 134.475 256.841 135.397 256.575 136.989C256.316 138.573 258.791 140.394 262.592 141.681C263.331 141.932 263.834 142.625 263.834 143.41C263.841 147.424 264.763 150.349 266.355 150.616C267.939 150.875 269.76 148.399 271.047 144.598C271.298 143.859 271.991 143.357 272.776 143.357C276.798 143.349 279.722 142.427 279.981 140.835Z" fill="#EDB82C"/>
<path d="M13.2891 191.671C18.5086 191.671 22.7398 187.44 22.7398 182.22C22.7398 177.001 18.5086 172.77 13.2891 172.77C8.06964 172.77 3.83844 177.001 3.83844 182.22C3.83844 187.44 8.06964 191.671 13.2891 191.671Z" fill="#32B768"/>
</svg>
